<?xml version="1.0" standalone="no"?>
<!DOCTYPE svg PUBLIC "-//W3C//DTD SVG 20010904//EN"
 "http://www.w3.org/TR/2001/REC-SVG-20010904/DTD/svg10.dtd">
<svg version="1.0" xmlns="http://www.w3.org/2000/svg"
 width="512.000000pt" height="512.000000pt" viewBox="0 0 512.000000 512.000000"
 preserveAspectRatio="xMidYMid meet">
<metadata>
Created by potrace 1.11, written by Peter Selinger 2001-2013
</metadata>
<g transform="translate(0.000000,512.000000) scale(0.100000,-0.100000)"
fill="#000000" stroke="none">
<path d="M2597 4954 c-1 -1 -36 -5 -77 -8 -112 -8 -170 -19 -285 -50 -5 -1
-25 -6 -42 -10 -18 -4 -33 -12 -33 -18 0 -6 -3 -9 -6 -5 -10 10 -96 -38 -130
-72 -25 -25 -42 -32 -86 -36 -59 -6 -64 -7 -148 -28 -94 -24 -249 -95 -290
-132 -9 -8 -22 -15 -28 -15 -7 0 -12 -4 -12 -8 0 -4 -14 -16 -31 -26 -42 -25
-178 -160 -219 -218 -18 -27 -37 -48 -42 -48 -4 0 -7 -3 -6 -7 1 -5 -12 -33
-30 -63 -17 -30 -31 -59 -31 -64 1 -5 -4 -12 -11 -16 -6 -4 -12 -17 -13 -28
-1 -12 -5 -22 -10 -22 -4 0 -5 -4 -2 -10 3 -5 1 -10 -6 -10 -7 0 -10 -3 -6 -6
3 -3 1 -18 -5 -33 -13 -34 -18 -57 -23 -106 -2 -22 -5 -40 -6 -40 -5 0 -12
-123 -12 -245 -1 -167 4 -210 39 -377 3 -16 6 -36 7 -45 1 -10 4 -18 7 -18 3
0 7 -16 8 -37 2 -20 6 -41 9 -46 4 -6 10 -29 15 -51 4 -23 11 -52 14 -66 4
-14 7 -35 7 -47 1 -13 4 -23 7 -23 3 0 7 -15 9 -32 4 -41 9 -73 11 -73 2 0 5
-18 14 -75 9 -61 23 -113 40 -160 9 -25 18 -50 19 -56 2 -7 7 -18 13 -25 5 -8
19 -32 29 -54 11 -21 58 -78 105 -125 47 -47 101 -112 120 -145 31 -56 68
-113 80 -125 3 -3 25 -30 50 -60 64 -78 216 -219 238 -220 6 0 12 -4 12 -10 0
-5 7 -10 15 -10 8 0 15 -3 15 -7 0 -5 22 -19 49 -32 48 -23 71 -55 47 -65 -8
-3 -8 -5 0 -5 6 -1 9 -12 6 -26 -2 -14 -8 -22 -13 -19 -5 3 -12 -2 -15 -10 -3
-9 -11 -16 -18 -16 -6 0 -28 -16 -50 -35 -21 -19 -41 -35 -45 -35 -3 0 -20
-14 -38 -30 -18 -17 -37 -30 -42 -30 -6 0 -11 -4 -11 -8 0 -5 -62 -9 -137 -10
-76 0 -140 -1 -143 -2 -3 -1 -16 -3 -30 -4 -14 -2 -39 -6 -55 -11 -17 -4 -34
-9 -40 -10 -67 -16 -118 -35 -212 -82 -62 -30 -113 -59 -113 -64 0 -5 -7 -9
-15 -9 -9 0 -18 -7 -21 -15 -4 -8 -10 -15 -15 -15 -24 0 -173 -150 -224 -226
-22 -32 -43 -61 -46 -64 -3 -3 -12 -20 -20 -38 -8 -17 -17 -32 -21 -32 -5 0
-7 -3 -6 -7 0 -5 -6 -24 -14 -43 -16 -36 -29 -73 -29 -77 0 -2 -6 -21 -14 -43
-8 -22 -14 -42 -15 -45 0 -3 -1 -6 -1 -7 -1 -2 -3 -19 -4 -38 -2 -19 -4 -35
-5 -35 -7 0 -13 -278 -11 -502 l1 -53 1990 0 1990 0 1 38 c1 61 -2 444 -4 485
-1 20 -4 37 -8 37 -3 0 -5 10 -4 22 1 13 -5 46 -12 73 -8 28 -15 56 -15 63 -1
6 -6 12 -11 12 -6 0 -7 3 -4 7 4 3 2 12 -4 20 -6 7 -9 13 -6 13 12 0 -95 193
-122 221 -27 28 -51 59 -51 66 0 5 -69 73 -135 132 -25 22 -142 101 -150 101
-3 0 -18 8 -32 17 -15 10 -41 23 -58 29 -16 7 -60 23 -97 37 -38 14 -68 24
-68 22 0 -3 -11 0 -25 5 -38 15 -126 23 -260 24 l-121 1 -67 53 c-37 28 -71
52 -77 52 -6 0 -8 5 -5 10 3 6 -1 10 -9 10 -9 0 -16 4 -16 8 0 4 -13 16 -30
25 -27 17 -30 23 -30 70 l1 52 72 47 c40 25 85 57 101 70 50 40 160 151 190
193 16 22 70 81 120 130 91 90 167 176 169 192 0 4 11 19 23 32 22 24 127 227
139 269 3 12 10 22 14 22 4 0 8 6 9 13 1 23 11 56 22 77 6 12 9 24 6 27 -3 3
0 15 6 27 12 21 17 37 20 69 1 9 5 17 8 17 4 0 7 6 7 13 0 6 4 26 7 42 4 17 9
40 11 53 3 12 8 34 11 50 3 15 5 35 5 44 0 10 4 20 10 23 5 4 5 13 -1 25 -6
10 -6 21 -1 24 7 5 16 54 27 171 9 82 10 352 3 410 -11 81 -23 151 -32 185
-18 69 -29 108 -37 125 -5 11 -25 55 -44 97 -30 67 -80 149 -168 275 -13 18
-31 35 -40 39 -10 3 -18 9 -18 13 0 11 -73 84 -124 124 -23 17 -42 35 -44 39
-2 5 -9 8 -15 8 -7 1 -28 14 -47 30 -19 17 -38 30 -42 30 -5 0 -27 12 -51 27
-37 23 -153 85 -167 88 -7 2 -61 24 -87 35 -57 25 -71 30 -120 44 -28 8 -54
12 -57 9 -3 -4 -6 -2 -6 4 0 5 -6 10 -12 10 -22 2 -103 12 -103 13 0 6 -292
19 -298 14z"/>
</g>
</svg>
